<svg xmlns="http://www.w3.org/2000/svg" width="64" height="64" viewBox="0 0 256 256"><path fill="rgb(255,255,255)" d="M 230.14,62.17 C 224.13048,54.939613 215.38671,50.531505 206,50 204.66794,27.876298 182.86441,12.921574 161.74554,19.64626 140.62666,26.370946 131.48455,51.179402 143.19,70 c 0.54313,0.79207 0.44658,1.858376 -0.23,2.54 L 72.56,143 c -0.693367,0.65972 -1.749775,0.75501 -2.55,0.23 C 51.192879,131.46345 26.330376,140.58668 19.589822,161.73133 12.849269,182.87599 27.844653,204.70523 50,206 51.332056,228.1237 73.135587,243.07843 94.254464,236.35374 115.37334,229.62905 124.51545,204.8206 112.81,186 c -0.54313,-0.79207 -0.44658,-1.85838 0.23,-2.54 l 70.4,-70.4 c 0.68162,-0.67658 1.74793,-0.77313 2.54,-0.23 14.17638,8.93819 32.75146,6.21331 43.76342,-6.41989 C 240.75538,93.776907 240.91946,75.00375 230.13,62.18 Z"/></svg>